<mxfile host="app.diagrams.net" modified="2022-08-26T09:47:08.267Z" agent="5.0 (X11; Linux x86_64) AppleWebKit/537.36 (KHTML, like Gecko) Chrome/104.0.0.0 Safari/537.36" etag="iVG7ntu81gfC-2Fhe1X_" version="20.2.7" type="github">
  <diagram id="lw74nOSZ6FB6i_JtG4cS" name="Страница 1">
    <mxGraphModel dx="653" dy="237" grid="1" gridSize="10" guides="1" tooltips="1" connect="1" arrows="1" fold="1" page="1" pageScale="1" pageWidth="827" pageHeight="1169" math="0" shadow="0">
      <root>
        <mxCell id="0" />
        <mxCell id="1" parent="0" />
        <mxCell id="17B8fIWzP1kTG47IpcE8-1" value="" style="sketch=0;html=1;aspect=fixed;strokeColor=none;shadow=0;align=center;verticalAlign=top;fillColor=#3B8DF1;shape=mxgraph.gcp2.service" vertex="1" parent="1">
          <mxGeometry x="240" y="120" width="91" height="130" as="geometry" />
        </mxCell>
      </root>
    </mxGraphModel>
  </diagram>
</mxfile>
